<svg width="406" height="118" viewBox="0 0 406 118" fill="none" xmlns="http://www.w3.org/2000/svg">
<path d="M0.880001 116V3.99999H42.32C51.28 3.99999 58.6933 5.49333 64.56 8.47999C70.4267 11.4667 74.8 15.5733 77.68 20.8C80.56 26.0267 82 31.8933 82 38.4C82 44.5867 80.6133 50.2933 77.84 55.52C75.0667 60.64 70.7467 64.8 64.88 68C59.0133 71.0933 51.4933 72.64 42.32 72.64H21.36V116H0.880001ZM21.36 56H41.04C48.1867 56 53.3067 54.4533 56.4 51.36C59.6 48.16 61.2 43.84 61.2 38.4C61.2 32.8533 59.6 28.5333 56.4 25.44C53.3067 22.24 48.1867 20.64 41.04 20.64H21.36V56ZM119.948 117.92C113.121 117.92 107.521 116.853 103.148 114.72C98.7742 112.48 95.5208 109.547 93.3875 105.92C91.2542 102.293 90.1875 98.2933 90.1875 93.92C90.1875 86.56 93.0675 80.5867 98.8275 76C104.588 71.4133 113.228 69.12 124.748 69.12H144.908V67.2C144.908 61.76 143.361 57.76 140.268 55.2C137.174 52.64 133.334 51.36 128.748 51.36C124.588 51.36 120.961 52.3733 117.868 54.4C114.774 56.32 112.854 59.2 112.108 63.04H92.1075C92.6408 57.28 94.5608 52.2667 97.8675 48C101.281 43.7333 105.654 40.48 110.988 38.24C116.321 35.8933 122.294 34.72 128.908 34.72C140.214 34.72 149.121 37.5467 155.628 43.2C162.134 48.8533 165.388 56.8533 165.388 67.2V116H147.948L146.028 103.2C143.681 107.467 140.374 110.987 136.108 113.76C131.948 116.533 126.561 117.92 119.948 117.92ZM124.588 101.92C130.454 101.92 134.988 100 138.188 96.16C141.494 92.32 143.574 87.5733 144.428 81.92H126.988C121.548 81.92 117.654 82.9333 115.308 84.96C112.961 86.88 111.788 89.28 111.788 92.16C111.788 95.2533 112.961 97.6533 115.308 99.36C117.654 101.067 120.748 101.92 124.588 101.92ZM184.931 116V36.64H203.171L205.091 51.52C207.971 46.4 211.865 42.3467 216.771 39.36C221.785 36.2667 227.651 34.72 234.371 34.72V56.32H228.611C224.131 56.32 220.131 57.0133 216.611 58.4C213.091 59.7867 210.318 62.1867 208.291 65.6C206.371 69.0133 205.411 73.76 205.411 79.84V116H184.931ZM248.369 116V0.799995H268.849V116H248.369ZM300.815 24.32C297.082 24.32 293.988 23.2 291.535 20.96C289.188 18.72 288.015 15.8933 288.015 12.48C288.015 9.06666 289.188 6.29333 291.535 4.15999C293.988 1.91999 297.082 0.799995 300.815 0.799995C304.548 0.799995 307.588 1.91999 309.935 4.15999C312.388 6.29333 313.615 9.06666 313.615 12.48C313.615 15.8933 312.388 18.72 309.935 20.96C307.588 23.2 304.548 24.32 300.815 24.32ZM290.575 116V36.64H311.055V116H290.575ZM359.791 117.92C352.965 117.92 347.365 116.853 342.991 114.72C338.618 112.48 335.365 109.547 333.231 105.92C331.098 102.293 330.031 98.2933 330.031 93.92C330.031 86.56 332.911 80.5867 338.671 76C344.431 71.4133 353.071 69.12 364.591 69.12H384.751V67.2C384.751 61.76 383.205 57.76 380.111 55.2C377.018 52.64 373.178 51.36 368.591 51.36C364.431 51.36 360.805 52.3733 357.711 54.4C354.618 56.32 352.698 59.2 351.951 63.04H331.951C332.485 57.28 334.405 52.2667 337.711 48C341.125 43.7333 345.498 40.48 350.831 38.24C356.165 35.8933 362.138 34.72 368.751 34.72C380.058 34.72 388.965 37.5467 395.471 43.2C401.978 48.8533 405.231 56.8533 405.231 67.2V116H387.791L385.871 103.2C383.525 107.467 380.218 110.987 375.951 113.76C371.791 116.533 366.405 117.92 359.791 117.92ZM364.431 101.92C370.298 101.92 374.831 100 378.031 96.16C381.338 92.32 383.418 87.5733 384.271 81.92H366.831C361.391 81.92 357.498 82.9333 355.151 84.96C352.805 86.88 351.631 89.28 351.631 92.16C351.631 95.2533 352.805 97.6533 355.151 99.36C357.498 101.067 360.591 101.92 364.431 101.92Z" fill="white"/>
</svg>
